<svg width="40" height="40" viewBox="0 0 40 40" fill="none" xmlns="http://www.w3.org/2000/svg">
<path d="M31.7647 39.0867C33.0824 37.869 38.6824 37.869 40 39.0867C38.6824 40.3044 33.0824 40.3044 31.7647 39.0867Z" fill="url(#paint0_linear_209_25)"/>
<path d="M23.8235 34.315C26.4118 33.0973 37.4118 33.0973 40 34.315C37.4118 35.5328 26.4118 35.5328 23.8235 34.315Z" fill="url(#paint1_linear_209_25)"/>
<path d="M15.8823 29.5434C19.7411 28.3257 36.1411 28.3257 40 29.5434C36.1411 30.7611 19.7411 30.7611 15.8823 29.5434Z" fill="url(#paint2_linear_209_25)"/>
<path d="M7.94116 24.7717C13.0706 23.554 34.8706 23.554 40 24.7717C34.8706 25.9894 13.0706 25.9894 7.94116 24.7717Z" fill="url(#paint3_linear_209_25)"/>
<path d="M0 20C6.4 18.7823 33.6 18.7823 40 20C33.6 21.2178 6.4 21.2178 0 20Z" fill="url(#paint4_linear_209_25)"/>
<path d="M7.94116 15.2284C13.0706 14.0106 34.8706 14.0106 40 15.2284C34.8706 16.4461 13.0706 16.4461 7.94116 15.2284Z" fill="url(#paint5_linear_209_25)"/>
<path d="M15.8823 10.4567C19.7411 9.23897 36.1411 9.23897 40 10.4567C36.1411 11.6744 19.7411 11.6744 15.8823 10.4567Z" fill="url(#paint6_linear_209_25)"/>
<path d="M23.8235 5.68506C26.4118 4.46733 37.4118 4.46733 40 5.68506C37.4118 6.90279 26.4118 6.90279 23.8235 5.68506Z" fill="url(#paint7_linear_209_25)"/>
<path d="M31.7647 0.913394C33.0824 -0.304335 38.6824 -0.304335 40 0.913394C38.6824 2.13112 33.0824 2.13112 31.7647 0.913394Z" fill="url(#paint8_linear_209_25)"/>
<defs>
<linearGradient id="paint0_linear_209_25" x1="31.7647" y1="39.0867" x2="40" y2="39.0867" gradientUnits="userSpaceOnUse">
<stop stop-color="white"/>
<stop offset="1" stop-color="white" stop-opacity="0.8"/>
</linearGradient>
<linearGradient id="paint1_linear_209_25" x1="23.8235" y1="34.315" x2="40" y2="34.315" gradientUnits="userSpaceOnUse">
<stop stop-color="white"/>
<stop offset="1" stop-color="white" stop-opacity="0.8"/>
</linearGradient>
<linearGradient id="paint2_linear_209_25" x1="15.8823" y1="29.5434" x2="40" y2="29.5434" gradientUnits="userSpaceOnUse">
<stop stop-color="white"/>
<stop offset="1" stop-color="white" stop-opacity="0.8"/>
</linearGradient>
<linearGradient id="paint3_linear_209_25" x1="7.94116" y1="24.7717" x2="40" y2="24.7717" gradientUnits="userSpaceOnUse">
<stop stop-color="white"/>
<stop offset="1" stop-color="white" stop-opacity="0.8"/>
</linearGradient>
<linearGradient id="paint4_linear_209_25" x1="0" y1="20" x2="40" y2="20" gradientUnits="userSpaceOnUse">
<stop stop-color="white"/>
<stop offset="1" stop-color="white" stop-opacity="0.8"/>
</linearGradient>
<linearGradient id="paint5_linear_209_25" x1="7.94116" y1="15.2284" x2="40" y2="15.2284" gradientUnits="userSpaceOnUse">
<stop stop-color="white"/>
<stop offset="1" stop-color="white" stop-opacity="0.8"/>
</linearGradient>
<linearGradient id="paint6_linear_209_25" x1="15.8823" y1="10.4567" x2="40" y2="10.4567" gradientUnits="userSpaceOnUse">
<stop stop-color="white"/>
<stop offset="1" stop-color="white" stop-opacity="0.8"/>
</linearGradient>
<linearGradient id="paint7_linear_209_25" x1="23.8235" y1="5.68506" x2="40" y2="5.68506" gradientUnits="userSpaceOnUse">
<stop stop-color="white"/>
<stop offset="1" stop-color="white" stop-opacity="0.8"/>
</linearGradient>
<linearGradient id="paint8_linear_209_25" x1="31.7647" y1="0.913394" x2="40" y2="0.913394" gradientUnits="userSpaceOnUse">
<stop stop-color="white"/>
<stop offset="1" stop-color="white" stop-opacity="0.8"/>
</linearGradient>
</defs>
</svg>
